<svg width="96" height="96" xmlns="http://www.w3.org/2000/svg" xmlns:xlink="http://www.w3.org/1999/xlink" xml:space="preserve" overflow="hidden"><defs><clipPath id="clip0"><rect x="784" y="216" width="96" height="96"/></clipPath></defs><g clip-path="url(#clip0)" transform="translate(-784 -216)"><path d="M815.3 258 798.438 258C798.432 258 798.428 257.995 798.428 257.99 798.428 257.987 798.429 257.985 798.431 257.983L817.707 238.707 816.293 237.293 794.586 259 816.293 280.707 817.707 279.293 798.431 260.017C798.427 260.013 798.427 260.007 798.431 260.003 798.433 260.001 798.435 260 798.438 260L815.3 260C837.682 259.926 857.827 273.564 866.071 294.372L867.929 293.628C859.382 272.059 838.5 257.923 815.3 258Z" fill="#FFFFFF" fill-rule="nonzero" fill-opacity="1"/></g></svg>