<svg width="97" height="96" xmlns="http://www.w3.org/2000/svg" xmlns:xlink="http://www.w3.org/1999/xlink" xml:space="preserve" overflow="hidden"><defs><clipPath id="clip0"><rect x="925" y="216" width="97" height="96"/></clipPath><clipPath id="clip1"><rect x="926" y="216" width="96" height="96"/></clipPath><clipPath id="clip2"><rect x="926" y="216" width="96" height="96"/></clipPath><clipPath id="clip3"><rect x="926" y="216" width="96" height="96"/></clipPath></defs><g clip-path="url(#clip0)" transform="translate(-925 -216)"><g clip-path="url(#clip1)"><g clip-path="url(#clip2)"><g clip-path="url(#clip3)"><path d="M989.282 258 1006.15 258C1006.15 258 1006.16 257.995 1006.16 257.99 1006.16 257.987 1006.16 257.985 1006.16 257.983L986.879 238.707 988.293 237.293 1010 259 988.293 280.707 986.879 279.293 1006.16 260.017C1006.16 260.013 1006.16 260.007 1006.15 260.003 1006.15 260.001 1006.15 260 1006.15 260L989.282 260C966.901 259.927 946.759 273.565 938.515 294.372L936.657 293.628C945.203 272.06 966.083 257.925 989.282 258Z" fill="#FFFFFF" fill-rule="nonzero" fill-opacity="1"/></g></g></g></g></svg>