<svg width="96" height="97" xmlns="http://www.w3.org/2000/svg" xmlns:xlink="http://www.w3.org/1999/xlink" xml:space="preserve" overflow="hidden"><defs><clipPath id="clip0"><rect x="356" y="332" width="96" height="97"/></clipPath><clipPath id="clip1"><rect x="356" y="333" width="96" height="96"/></clipPath><clipPath id="clip2"><rect x="356" y="333" width="96" height="96"/></clipPath><clipPath id="clip3"><rect x="356" y="333" width="96" height="96"/></clipPath></defs><g clip-path="url(#clip0)" transform="translate(-356 -332)"><g clip-path="url(#clip1)"><g clip-path="url(#clip2)"><g clip-path="url(#clip3)"><path d="M446.334 398.43 440.927 396.512 440.927 387.489 445.274 385.65C445.783 385.435 446.021 384.849 445.807 384.34 445.673 384.024 445.387 383.798 445.048 383.742L437.911 382.563 437.911 373.72 446.375 370.3C446.887 370.093 447.135 369.51 446.928 368.998 446.82 368.732 446.604 368.526 446.334 368.43L440.927 366.512 440.927 357.489 445.274 355.65C445.783 355.435 446.021 354.848 445.805 354.339 445.698 354.085 445.49 353.887 445.231 353.791L411.671 341.4C411.455 341.32 411.218 341.317 411 341.392L365.7 357.19C365.605 357.222 365.516 357.269 365.436 357.328 365.307 357.428 362.27 359.738 362.27 366.835 362.258 368.452 362.443 370.064 362.822 371.635 361.643 372.635 359.27 375.335 359.27 380.835 359.25 384.793 360.517 388.65 362.881 391.825 362.455 393.46 362.25 395.145 362.27 396.835 362.27 403.873 365.364 406.735 365.496 406.852 365.584 406.932 365.685 406.995 365.796 407.039L397.796 419.631C397.913 419.677 398.037 419.7 398.162 419.7 398.291 419.7 398.418 419.675 398.537 419.627L446.375 400.3C446.887 400.093 447.135 399.51 446.928 398.998 446.82 398.732 446.604 398.526 446.334 398.43ZM435.911 382.73 398.121 397.788 366.465 385.326 366.465 377.315 397.8 389.631C398.038 389.726 398.303 389.726 398.541 389.631L435.909 374.531ZM398.163 417.623 366.733 405.257C366.245 404.713 364.272 402.182 364.272 396.835 364.243 395.165 364.47 393.501 364.945 391.9 365.053 391.56 364.972 391.188 364.732 390.924 362.46 388.053 361.239 384.492 361.272 380.831 361.272 374.886 364.345 372.961 364.472 372.886 364.872 372.654 365.061 372.178 364.929 371.735 364.476 370.142 364.256 368.491 364.275 366.835 364.275 361.518 366.126 359.421 366.544 359.015L411.314 343.4 442.144 354.784C442.158 354.784 442.158 354.798 442.144 354.803L398.163 372.623 368.831 361.077C368.317 360.875 367.737 361.128 367.534 361.642 367.488 361.758 367.465 361.883 367.465 362.008L367.465 372.008C367.465 372.418 367.716 372.787 368.098 372.938L397.8 384.631C398.038 384.726 398.303 384.726 398.541 384.631L439.466 368.091 443.156 369.424C443.169 369.429 443.169 369.437 443.156 369.443L398.163 387.623 365.831 374.917C365.317 374.715 364.737 374.968 364.534 375.482 364.488 375.598 364.465 375.723 364.465 375.848L364.465 386.008C364.465 386.418 364.716 386.787 365.098 386.938L397.757 399.794C397.993 399.888 398.257 399.888 398.493 399.794L437.022 384.444 441.28 385.144C441.299 385.144 441.3 385.156 441.28 385.163L398.163 402.623 368.831 391.077C368.317 390.875 367.737 391.128 367.534 391.642 367.488 391.758 367.465 391.883 367.465 392.008L367.465 402.008C367.465 402.419 367.716 402.787 368.098 402.938L397.8 414.631C398.038 414.726 398.303 414.726 398.541 414.631L439.466 398.091 443.156 399.424C443.169 399.424 443.169 399.437 443.156 399.443ZM438.927 366.152 398.163 382.623 369.463 371.323 369.463 363.473 397.8 374.631C398.038 374.726 398.303 374.726 398.541 374.631L438.927 358.309ZM438.927 396.152 398.163 412.623 369.463 401.323 369.463 393.473 397.8 404.631C398.038 404.726 398.303 404.726 398.541 404.631L438.927 388.309Z" fill="#FFFFFF" fill-rule="nonzero" fill-opacity="1"/></g></g></g></g></svg>