<svg width="97" height="97" xmlns="http://www.w3.org/2000/svg" xmlns:xlink="http://www.w3.org/1999/xlink" xml:space="preserve" overflow="hidden"><defs><clipPath id="clip0"><rect x="940" y="417" width="97" height="97"/></clipPath><clipPath id="clip1"><rect x="941" y="418" width="96" height="96"/></clipPath><clipPath id="clip2"><rect x="941" y="418" width="96" height="96"/></clipPath><clipPath id="clip3"><rect x="941" y="418" width="96" height="96"/></clipPath></defs><g clip-path="url(#clip0)" transform="translate(-940 -417)"><g clip-path="url(#clip1)"><g clip-path="url(#clip2)"><g clip-path="url(#clip3)"><path d="M972.707 460.77 971.293 459.355 958.615 472.034C958.611 472.038 958.605 472.038 958.601 472.034 958.599 472.032 958.598 472.03 958.598 472.028 955.257 455.236 966.16 438.915 982.952 435.574 996.961 432.786 1011.06 439.932 1017.1 452.878L1018.91 452.031C1011.23 435.507 991.609 428.337 975.085 436.017 961.824 442.18 954.203 456.337 956.358 470.8 956.36 470.805 956.357 470.81 956.353 470.812 956.349 470.813 956.344 470.811 956.342 470.808L944.891 459.355 943.477 460.77 958.092 475.385Z" fill="#FFFFFF" fill-rule="nonzero" fill-opacity="1"/><path d="M1005.29 473.264 1006.71 474.678 1019.67 461.718C1019.67 461.714 1019.68 461.714 1019.68 461.718 1019.68 461.72 1019.68 461.722 1019.68 461.724 1022.12 478.598 1010.41 494.25 993.539 496.684 992.036 496.901 990.519 497.007 989 497 977.523 497.011 966.982 490.673 961.609 480.531L959.843 481.469C968.379 497.572 988.352 503.706 1004.46 495.171 1015.25 489.446 1022.01 478.222 1022 466 1022 465.163 1021.96 464.325 1021.9 463.49 1021.9 463.484 1021.9 463.48 1021.91 463.48 1021.91 463.48 1021.91 463.481 1021.92 463.482L1033.11 474.682 1034.53 473.268 1019.91 458.648Z" fill="#FFFFFF" fill-rule="nonzero" fill-opacity="1"/></g></g></g></g></svg>